<svg width="90" height="59" viewBox="0 0 90 59" fill="none" xmlns="http://www.w3.org/2000/svg">
<path fill-rule="evenodd" clip-rule="evenodd" d="M40.0505 5.76336C40.0596 5.75222 40.0685 5.74098 40.0773 5.72965C40.2253 5.53981 40.3557 5.33167 40.562 5.20759V5.20759C40.8462 5.03662 41.275 4.85408 41.8477 4.70052C42.9931 4.39337 44.4891 4.26212 46.0128 4.41503C49.2142 4.73633 51.535 6.12725 52.0476 8.43391C52.8981 12.2608 52.1411 14.083 50.938 15.2548C49.4964 16.6587 47.0352 17.5528 43.4506 18.577C42.592 18.8223 42 19.6071 42 20.5V21.8078C42 23.6936 39.7982 25 37.9124 25V25C34.0948 25 31 27.5203 31 30.6291C31 31.4391 31.2101 32.2092 31.5884 32.9052C31.6602 33.0373 31.6056 33.2048 31.4764 33.2818V33.2818L8.02586 47.2523L7.95326 47.2905C7.87344 47.3327 7.75959 47.3935 7.61787 47.4707C7.33481 47.625 6.93851 47.8461 6.47862 48.117C5.56953 48.6526 4.36685 49.4094 3.29451 50.2492C2.75819 50.6692 2.2218 51.1353 1.76152 51.6292C1.31783 52.1053 0.851235 52.7058 0.572486 53.4038C0.277932 54.1413 0.146047 55.1363 0.667548 56.119C1.15147 57.0309 2.00318 57.5523 2.80313 57.8637C3.03447 57.9538 3.28055 58 3.5288 58H45H85.5068C85.7604 58 86.0117 57.9518 86.2474 57.8579C87.4871 57.3636 88.7475 56.6052 89.2189 55.2885C89.7559 53.7887 88.9639 52.5763 88.4411 51.9912C87.8869 51.371 87.1868 50.9147 86.7239 50.6444C86.4752 50.4992 86.2542 50.3844 86.0932 50.3048C86.0147 50.2661 85.9491 50.235 85.8998 50.2122L57.0722 34.2503V34.2503C56.9541 34.185 56.9185 34.0218 57.008 33.9208C57.8288 32.9952 58.3125 31.8581 58.3125 30.6291C58.3125 27.5203 55.2177 25 51.4 25C50.702 25 50.0281 25.0843 49.3929 25.241C47.9974 25.5853 46 24.627 46 23.1897V23.1897C46 22.4821 46.4643 21.8613 47.1366 21.6407C49.6519 20.8157 52.0256 19.779 53.7287 18.1204C56.2478 15.6671 56.9908 12.2393 55.9524 7.56619C54.865 2.67285 50.1859 0.813751 46.4122 0.435025C44.4484 0.237929 42.4631 0.394167 40.8117 0.837013C39.9859 1.05845 39.1874 1.36653 38.5001 1.77993C37.8906 2.14659 37.253 2.66628 36.8278 3.39076C36.7949 3.43332 36.7562 3.48398 36.7125 3.5422C36.5764 3.72363 36.3905 3.98054 36.1797 4.29687C35.7626 4.92241 35.2252 5.81407 34.7867 6.83718C33.9883 8.70023 33.1376 11.966 35.5858 14.4142C36.3668 15.1953 37.6332 15.1953 38.4142 14.4142C39.1953 13.6332 39.1953 12.3669 38.4142 11.5858C37.8624 11.034 37.7617 10.0498 38.4633 8.41286C38.7748 7.68597 39.1749 7.01513 39.5079 6.51567C39.672 6.26949 39.8142 6.07328 39.9125 5.9422C39.9615 5.87684 39.9992 5.82818 40.0228 5.79816L40.0472 5.76748L40.0486 5.76566L40.0491 5.76508L40.0492 5.76494L40.0492 5.76488L40.0501 5.76387L40.0505 5.76336ZM47.0632 45.2505L53.5745 37.8065C53.9416 37.3868 54.6468 37.4796 55.1346 37.7497V37.7497L84.0312 53.7497C84.0848 53.7794 84.1397 53.8066 84.1958 53.8312L84.196 53.8313L84.1976 53.832L84.1985 53.8324L84.2158 53.8404C84.2282 53.8461 84.2455 53.8542 84.2669 53.8645C84.2828 53.8721 84.3011 53.881 84.3215 53.8911V53.8911C84.3773 53.9187 84.3572 54 84.2949 54H45H5.98106C5.64901 54 5.49941 53.6031 5.76083 53.3984V53.3984C6.6352 52.7136 7.66869 52.0585 8.50909 51.5633C8.92395 51.3189 9.28072 51.1199 9.53205 50.9829C9.65752 50.9146 9.7562 50.8619 9.8221 50.8271L9.89546 50.7886L9.91219 50.7799L9.91487 50.7785L9.91532 50.7783C9.95203 50.7594 9.98814 50.7393 10.0236 50.7182L33.5236 36.7182C33.6 36.6727 33.6723 36.6229 33.7403 36.5693C34.0252 36.3447 34.5616 36.3497 34.804 36.6197V36.6197L42.5727 45.2731C43.7766 46.6142 45.8796 46.6036 47.0632 45.2505Z" fill="#E9C5C5"/>
<path d="M40.0505 5.76336L39.8954 5.63703L39.8952 5.63736L40.0505 5.76336ZM41.8477 4.70052L41.7959 4.50734L41.7959 4.50734L41.8477 4.70052ZM46.0128 4.41503L45.9928 4.61403L45.9928 4.61403L46.0128 4.41503ZM52.0476 8.43391L52.2429 8.39052L52.2429 8.39052L52.0476 8.43391ZM50.938 15.2548L51.0775 15.398L51.0775 15.398L50.938 15.2548ZM43.4506 18.577L43.3956 18.3847L43.3956 18.3847L43.4506 18.577ZM8.02586 47.2523L8.11909 47.4296L8.12822 47.4241L8.02586 47.2523ZM7.95326 47.2905L7.86017 47.1135L7.85982 47.1137L7.95326 47.2905ZM7.61787 47.4707L7.52216 47.2951L7.52216 47.2951L7.61787 47.4707ZM6.47862 48.117L6.58014 48.2893L6.58014 48.2893L6.47862 48.117ZM3.29451 50.2492L3.41783 50.4067L3.41783 50.4067L3.29451 50.2492ZM1.76152 51.6292L1.90783 51.7656L1.90783 51.7656L1.76152 51.6292ZM0.572486 53.4038L0.386749 53.3296L0.386749 53.3296L0.572486 53.4038ZM0.667548 56.119L0.490882 56.2128L0.490882 56.2128L0.667548 56.119ZM2.80313 57.8637L2.73057 58.0501L2.73057 58.0501L2.80313 57.8637ZM86.2474 57.8579L86.3214 58.0436L86.3214 58.0436L86.2474 57.8579ZM89.2189 55.2885L89.0306 55.221L89.0306 55.221L89.2189 55.2885ZM88.4411 51.9912L88.2919 52.1245L88.2919 52.1245L88.4411 51.9912ZM86.7239 50.6444L86.623 50.8171L86.623 50.8171L86.7239 50.6444ZM86.0932 50.3048L86.1818 50.1255L86.1818 50.1255L86.0932 50.3048ZM85.8998 50.2122L85.803 50.3871C85.8071 50.3894 85.8114 50.3916 85.8157 50.3936L85.8998 50.2122ZM53.7287 18.1204L53.5892 17.9771L53.5892 17.9771L53.7287 18.1204ZM55.9524 7.56619L56.1476 7.5228L56.1476 7.5228L55.9524 7.56619ZM46.4122 0.435025L46.3923 0.634025L46.4122 0.435025ZM40.8117 0.837013L40.8635 1.03019L40.8635 1.03019L40.8117 0.837013ZM38.5001 1.77993L38.397 1.60855L38.397 1.60855L38.5001 1.77993ZM36.8278 3.39076L36.986 3.51311C36.9912 3.50638 36.996 3.49934 37.0003 3.49201L36.8278 3.39076ZM36.7125 3.5422L36.5525 3.4222L36.5525 3.42221L36.7125 3.5422ZM36.1797 4.29687L36.3461 4.40781L36.3461 4.40781L36.1797 4.29687ZM34.7867 6.83718L34.6029 6.7584L34.6029 6.7584L34.7867 6.83718ZM35.5858 14.4142L35.4444 14.5557L35.4444 14.5557L35.5858 14.4142ZM38.4142 14.4142L38.5556 14.5557L38.5556 14.5557L38.4142 14.4142ZM38.4142 11.5858L38.5556 11.4444L38.5556 11.4444L38.4142 11.5858ZM38.4633 8.41286L38.6471 8.49164L38.6471 8.49164L38.4633 8.41286ZM39.5079 6.51567L39.3414 6.40473L39.3414 6.40473L39.5079 6.51567ZM39.9125 5.9422L40.0725 6.0622L40.0725 6.0622L39.9125 5.9422ZM40.0228 5.79816L39.8661 5.67392L39.8656 5.67459L40.0228 5.79816ZM40.0472 5.76748L40.2039 5.89172L40.204 5.89162L40.0472 5.76748ZM40.0486 5.76566L39.8937 5.63914L39.8918 5.64152L40.0486 5.76566ZM40.0491 5.76508L40.204 5.89158L40.2042 5.89126L40.0491 5.76508ZM40.0492 5.76494L39.8984 5.63335L39.894 5.63876L40.0492 5.76494ZM40.0492 5.76488L40.2 5.89646L40.2042 5.89127L40.0492 5.76488ZM40.0501 5.76387L40.2051 5.89026L40.2054 5.88987L40.0501 5.76387ZM47.0632 45.2505L46.9126 45.1189L46.9126 45.1189L47.0632 45.2505ZM84.0312 53.7497L83.9343 53.9247L83.9343 53.9247L84.0312 53.7497ZM84.1958 53.8312L84.2796 53.6496L84.2762 53.6481L84.1958 53.8312ZM84.196 53.8313L84.1121 54.0129L84.116 54.0146L84.196 53.8313ZM84.1976 53.832L84.2782 53.649L84.2775 53.6487L84.1976 53.832ZM84.1985 53.8324L84.2823 53.6508L84.2791 53.6494L84.1985 53.8324ZM84.2158 53.8404L84.2998 53.6589L84.2995 53.6588L84.2158 53.8404ZM84.2669 53.8645L84.1803 54.0448L84.1804 54.0448L84.2669 53.8645ZM8.50909 51.5633L8.40757 51.391L8.40756 51.391L8.50909 51.5633ZM9.53205 50.9829L9.62775 51.1586L9.62776 51.1586L9.53205 50.9829ZM9.8221 50.8271L9.72911 50.65L9.72865 50.6503L9.8221 50.8271ZM9.89546 50.7886L9.80323 50.6111L9.80247 50.6115L9.89546 50.7886ZM9.91219 50.7799L9.8204 50.6022L9.81997 50.6024L9.91219 50.7799ZM9.91487 50.7785L10.0067 50.9562L10.0067 50.9562L9.91487 50.7785ZM9.91532 50.7783L9.82379 50.6004L9.82352 50.6006L9.91532 50.7783ZM10.0236 50.7182L10.126 50.89L10.126 50.89L10.0236 50.7182ZM33.5236 36.7182L33.626 36.89L33.626 36.89L33.5236 36.7182ZM42.5727 45.2731L42.4239 45.4067L42.4239 45.4067L42.5727 45.2731ZM33.7403 36.5693L33.8641 36.7263L33.7403 36.5693ZM53.5745 37.8065L53.725 37.9382L53.5745 37.8065ZM47.1366 21.6407L47.0743 21.4507L47.1366 21.6407ZM49.3929 25.241L49.345 25.0468L49.3929 25.241ZM40.0773 5.72965L40.2351 5.85261L40.0773 5.72965ZM57.008 33.9208L56.8583 33.7882L57.008 33.9208ZM31.5884 32.9052L31.4126 33.0007L31.5884 32.9052ZM39.9196 5.60669C39.9117 5.61688 39.9036 5.627 39.8954 5.63703L40.2055 5.8897C40.2155 5.87744 40.2254 5.86508 40.2351 5.85261L39.9196 5.60669ZM41.7959 4.50734C41.2106 4.6643 40.7633 4.85311 40.4589 5.03621L40.6651 5.37898C40.9291 5.22013 41.3395 5.04386 41.8995 4.89369L41.7959 4.50734ZM46.0328 4.21603C44.4871 4.06091 42.9666 4.19341 41.7959 4.50734L41.8995 4.89369C43.0196 4.59333 44.4912 4.46333 45.9928 4.61403L46.0328 4.21603ZM52.2429 8.39052C51.7019 5.95622 49.2654 4.54046 46.0328 4.21603L45.9928 4.61403C49.1629 4.93219 51.3682 6.29829 51.8524 8.4773L52.2429 8.39052ZM51.0775 15.398C51.7041 14.7878 52.2159 14.0051 52.4584 12.8823C52.6998 11.7644 52.6719 10.3212 52.2429 8.39052L51.8524 8.4773C52.2738 10.3736 52.2926 11.7549 52.0674 12.7978C51.8432 13.8357 51.3749 14.55 50.7984 15.1115L51.0775 15.398ZM43.5055 18.7693C47.0811 17.7477 49.5938 16.843 51.0775 15.398L50.7984 15.1115C49.399 16.4744 46.9894 17.3579 43.3956 18.3847L43.5055 18.7693ZM42.2 20.5C42.2 19.6964 42.7328 18.9901 43.5055 18.7693L43.3956 18.3847C42.4512 18.6545 41.8 19.5178 41.8 20.5H42.2ZM42.2 21.8078V20.5H41.8V21.8078H42.2ZM37.9124 24.8C34.0247 24.8 30.8 27.3734 30.8 30.6291H31.2C31.2 27.6671 34.1649 25.2 37.9124 25.2V24.8ZM30.8 30.6291C30.8 31.4745 31.0194 32.2772 31.4126 33.0007L31.7641 32.8097C31.4008 32.1412 31.2 31.4038 31.2 30.6291H30.8ZM31.374 33.11L7.9235 47.0805L8.12822 47.4241L31.5788 33.4536L31.374 33.11ZM7.93277 47.0753L7.86017 47.1135L8.04636 47.4675L8.11896 47.4293L7.93277 47.0753ZM7.85982 47.1137C7.7793 47.1562 7.66469 47.2174 7.52216 47.2951L7.71358 47.6463C7.85448 47.5695 7.96757 47.5092 8.0467 47.4673L7.85982 47.1137ZM7.52216 47.2951C7.23752 47.4502 6.83923 47.6724 6.3771 47.9447L6.58014 48.2893C7.03778 48.0197 7.43211 47.7997 7.71358 47.6463L7.52216 47.2951ZM6.3771 47.9447C5.46456 48.4823 4.25343 49.2442 3.17119 50.0917L3.41783 50.4067C4.48027 49.5746 5.67449 48.8229 6.58014 48.2893L6.3771 47.9447ZM3.17119 50.0917C2.6299 50.5157 2.08493 50.9888 1.6152 51.4929L1.90783 51.7656C2.35867 51.2818 2.88648 50.8228 3.41783 50.4067L3.17119 50.0917ZM1.6152 51.4929C1.16368 51.9774 0.678563 52.5989 0.386749 53.3296L0.758223 53.4779C1.02391 52.8127 1.47199 52.2333 1.90783 51.7656L1.6152 51.4929ZM0.386749 53.3296C0.0778349 54.1031 -0.0663618 55.1627 0.490882 56.2128L0.844214 56.0253C0.358456 55.1099 0.47803 54.1796 0.758223 53.4779L0.386749 53.3296ZM0.490882 56.2128C1.0066 57.1846 1.90881 57.7301 2.73057 58.0501L2.8757 57.6774C2.09756 57.3744 1.29635 56.8773 0.844214 56.0253L0.490882 56.2128ZM2.73057 58.0501C2.98503 58.1492 3.25573 58.2 3.5288 58.2V57.8C3.30538 57.8 3.0839 57.7584 2.8757 57.6774L2.73057 58.0501ZM3.5288 58.2H45V57.8H3.5288V58.2ZM45 58.2H85.5068V57.8H45V58.2ZM85.5068 58.2C85.7858 58.2 86.0622 58.147 86.3214 58.0436L86.1733 57.6721C85.9612 57.7566 85.735 57.8 85.5068 57.8V58.2ZM86.3214 58.0436C87.5718 57.5452 88.905 56.7584 89.4072 55.3559L89.0306 55.221C88.5899 56.4519 87.4024 57.1821 86.1733 57.6721L86.3214 58.0436ZM89.4072 55.3559C89.9819 53.7507 89.129 52.4609 88.5902 51.8579L88.2919 52.1245C88.7987 52.6916 89.5298 53.8268 89.0306 55.221L89.4072 55.3559ZM88.5902 51.8579C88.0153 51.2145 87.294 50.7457 86.8247 50.4717L86.623 50.8171C87.0797 51.0837 87.7585 51.5275 88.2919 52.1245L88.5902 51.8579ZM86.8247 50.4717C86.5713 50.3236 86.3461 50.2067 86.1818 50.1255L86.0046 50.4841C86.1624 50.5621 86.3792 50.6747 86.623 50.8171L86.8247 50.4717ZM86.1818 50.1255C86.1017 50.086 86.0346 50.0542 85.9839 50.0307L85.8157 50.3936C85.8636 50.4158 85.9277 50.4462 86.0046 50.4841L86.1818 50.1255ZM85.9967 50.0372L57.1691 34.0754L56.9753 34.4253L85.803 50.3871L85.9967 50.0372ZM57.1576 34.0535C58.0068 33.0959 58.5125 31.9129 58.5125 30.6291H58.1125C58.1125 31.8034 57.6508 32.8944 56.8583 33.7882L57.1576 34.0535ZM58.5125 30.6291C58.5125 27.3734 55.2878 24.8 51.4 24.8V25.2C55.1476 25.2 58.1125 27.6671 58.1125 30.6291H58.5125ZM51.4 24.8C50.6859 24.8 49.9959 24.8862 49.345 25.0468L49.4408 25.4352C50.0603 25.2824 50.7181 25.2 51.4 25.2V24.8ZM53.5892 17.9771C51.9201 19.6025 49.583 20.6278 47.0743 21.4507L47.199 21.8308C49.7208 21.0036 52.1311 19.9554 53.8683 18.2636L53.5892 17.9771ZM55.7571 7.60957C56.7863 12.2408 56.0422 15.5881 53.5892 17.9771L53.8683 18.2636C56.4534 15.746 57.1954 12.2377 56.1476 7.5228L55.7571 7.60957ZM46.3923 0.634025C50.1389 1.01004 54.6987 2.84655 55.7571 7.60957L56.1476 7.5228C55.0312 2.49914 50.2329 0.617464 46.4322 0.236024L46.3923 0.634025ZM40.8635 1.03019C42.4896 0.594127 44.4504 0.439138 46.3923 0.634025L46.4322 0.236024C44.4463 0.0367201 42.4366 0.194206 40.7599 0.643837L40.8635 1.03019ZM38.6032 1.95132C39.2703 1.55003 40.0504 1.24823 40.8635 1.03019L40.7599 0.643837C39.9214 0.868667 39.1045 1.18303 38.397 1.60855L38.6032 1.95132ZM37.0003 3.49201C37.4028 2.80621 38.0106 2.30783 38.6032 1.95132L38.397 1.60855C37.7706 1.98536 37.1033 2.52635 36.6553 3.28952L37.0003 3.49201ZM36.8725 3.66221C36.9156 3.6048 36.9537 3.55492 36.986 3.51311L36.6696 3.26841C36.6361 3.31172 36.5968 3.36316 36.5525 3.4222L36.8725 3.66221ZM36.3461 4.40781C36.5546 4.09499 36.7383 3.84111 36.8725 3.6622L36.5525 3.42221C36.4146 3.60614 36.2265 3.8661 36.0132 4.18593L36.3461 4.40781ZM34.9705 6.91597C35.4027 5.90766 35.9332 5.02704 36.3461 4.40781L36.0132 4.18593C35.592 4.81778 35.0477 5.72048 34.6029 6.7584L34.9705 6.91597ZM35.7272 14.2728C33.3746 11.9202 34.1762 8.76949 34.9705 6.91597L34.6029 6.7584C33.8004 8.63097 32.9006 12.0119 35.4444 14.5557L35.7272 14.2728ZM38.2728 14.2728C37.5699 14.9758 36.4302 14.9758 35.7272 14.2728L35.4444 14.5557C36.3035 15.4148 37.6965 15.4148 38.5556 14.5557L38.2728 14.2728ZM38.2728 11.7272C38.9757 12.4302 38.9757 13.5699 38.2728 14.2728L38.5556 14.5557C39.4148 13.6965 39.4148 12.3035 38.5556 11.4444L38.2728 11.7272ZM38.2795 8.33408C37.5711 9.98694 37.6282 11.0826 38.2728 11.7272L38.5556 11.4444C38.0967 10.9854 37.9524 10.1127 38.6471 8.49164L38.2795 8.33408ZM39.3414 6.40473C39.0043 6.91048 38.5973 7.59237 38.2795 8.33408L38.6471 8.49164C38.9523 7.77957 39.3455 7.11977 39.6743 6.62661L39.3414 6.40473ZM39.7525 5.8222C39.6523 5.9558 39.5079 6.15504 39.3414 6.40473L39.6743 6.62661C39.836 6.38394 39.9761 6.19076 40.0725 6.0622L39.7525 5.8222ZM39.8656 5.67459C39.8411 5.70572 39.8025 5.75556 39.7525 5.8222L40.0725 6.0622C40.1206 5.99811 40.1574 5.95065 40.1801 5.92172L39.8656 5.67459ZM39.8904 5.64324L39.8661 5.67392L40.1796 5.9224L40.2039 5.89172L39.8904 5.64324ZM39.8918 5.64152L39.8903 5.64334L40.204 5.89162L40.2054 5.88979L39.8918 5.64152ZM39.8942 5.63858L39.8937 5.63916L40.2035 5.89216L40.204 5.89158L39.8942 5.63858ZM39.894 5.63876L39.8939 5.63891L40.2042 5.89126L40.2044 5.89111L39.894 5.63876ZM39.8985 5.63338L39.8985 5.63343L40.1999 5.89644L40.1999 5.89639L39.8985 5.63338ZM39.8951 5.63748L39.8942 5.63849L40.2042 5.89127L40.2051 5.89026L39.8951 5.63748ZM39.8952 5.63736L39.8947 5.63787L40.2054 5.88987L40.2058 5.88936L39.8952 5.63736ZM53.4239 37.6749L46.9126 45.1189L47.2137 45.3822L53.725 37.9382L53.4239 37.6749ZM84.1281 53.5748L55.2315 37.5748L55.0377 37.9247L83.9343 53.9247L84.1281 53.5748ZM84.2762 53.6481C84.2257 53.6259 84.1763 53.6014 84.1281 53.5747L83.9343 53.9247C83.9933 53.9573 84.0537 53.9872 84.1153 54.0143L84.2762 53.6481ZM84.2798 53.6497L84.2796 53.6496L84.1119 54.0128L84.1121 54.0129L84.2798 53.6497ZM84.2775 53.6487L84.2759 53.648L84.116 54.0146L84.1176 54.0153L84.2775 53.6487ZM84.2791 53.6494L84.2782 53.649L84.1169 54.015L84.1179 54.0154L84.2791 53.6494ZM84.2995 53.6588L84.2822 53.6508L84.1148 54.014L84.1321 54.022L84.2995 53.6588ZM84.3534 53.6842C84.3311 53.6735 84.313 53.665 84.2998 53.6589L84.1319 54.0219C84.1435 54.0273 84.1598 54.035 84.1803 54.0448L84.3534 53.6842ZM84.41 53.7117C84.389 53.7013 84.37 53.6921 84.3534 53.6841L84.1804 54.0448C84.1957 54.0521 84.2133 54.0607 84.2329 54.0704L84.41 53.7117ZM45 54.2H84.2949V53.8H45V54.2ZM5.98106 54.2H45V53.8H5.98106V54.2ZM8.40756 51.391C7.56374 51.8882 6.52179 52.5484 5.63752 53.2409L5.88415 53.5558C6.74862 52.8788 7.77364 52.2288 8.61061 51.7356L8.40756 51.391ZM9.43634 50.8073C9.18342 50.9452 8.82468 51.1453 8.40757 51.391L8.61061 51.7356C9.02322 51.4926 9.37801 51.2947 9.62775 51.1586L9.43634 50.8073ZM9.72865 50.6503C9.66206 50.6855 9.56263 50.7385 9.43634 50.8073L9.62776 51.1586C9.75242 51.0906 9.85034 51.0384 9.91554 51.0039L9.72865 50.6503ZM9.80247 50.6115L9.72911 50.65L9.91508 51.0042L9.98844 50.9656L9.80247 50.6115ZM9.81997 50.6024L9.80323 50.6111L9.98768 50.966L10.0044 50.9573L9.81997 50.6024ZM9.82307 50.6008L9.8204 50.6022L10.004 50.9576L10.0067 50.9562L9.82307 50.6008ZM9.82352 50.6006L9.82306 50.6008L10.0067 50.9562L10.0071 50.9559L9.82352 50.6006ZM9.92126 50.5464C9.88933 50.5654 9.85683 50.5834 9.82379 50.6004L10.0069 50.9561C10.0472 50.9353 10.087 50.9133 10.126 50.89L9.92126 50.5464ZM33.4213 36.5464L9.92125 50.5464L10.126 50.89L33.626 36.89L33.4213 36.5464ZM33.6165 36.4122C33.5553 36.4605 33.4902 36.5053 33.4213 36.5464L33.626 36.89C33.7099 36.8401 33.7893 36.7853 33.8641 36.7263L33.6165 36.4122ZM42.7215 45.1395L34.9528 36.4861L34.6552 36.7533L42.4239 45.4067L42.7215 45.1395ZM46.9126 45.1189C45.8085 46.3812 43.8457 46.3917 42.7215 45.1395L42.4239 45.4067C43.7076 46.8367 45.9508 46.826 47.2137 45.3822L46.9126 45.1189ZM33.8641 36.7263C33.9613 36.6497 34.117 36.6032 34.2812 36.6089C34.4462 36.6146 34.5815 36.6712 34.6552 36.7533L34.9528 36.4861C34.7841 36.2982 34.53 36.2173 34.295 36.2091C34.0591 36.201 33.8041 36.2643 33.6165 36.4122L33.8641 36.7263ZM5.98106 53.8C5.90247 53.8 5.85445 53.7565 5.83594 53.7065C5.81807 53.6583 5.82602 53.6014 5.88415 53.5558L5.63751 53.2409C5.21202 53.5742 5.47737 54.2 5.98106 54.2V53.8ZM84.2329 54.0704C84.1688 54.0387 84.1439 53.9667 84.1582 53.9082C84.1723 53.8507 84.2258 53.8 84.2949 53.8V54.2C84.5556 54.2 84.6673 53.8389 84.4101 53.7117L84.2329 54.0704ZM53.725 37.9382C53.8581 37.7861 54.0611 37.7155 54.3061 37.7194C54.5518 37.7233 54.8181 37.8031 55.0377 37.9247L55.2315 37.5748C54.9632 37.4262 54.6331 37.3246 54.3124 37.3195C53.9912 37.3144 53.658 37.4073 53.4239 37.6749L53.725 37.9382ZM46.2 23.1897C46.2 22.5714 46.606 22.0253 47.199 21.8308L47.0743 21.4507C46.3226 21.6973 45.8 22.3928 45.8 23.1897H46.2ZM49.345 25.0468C48.7048 25.2048 47.9083 25.0649 47.2706 24.7088C46.6311 24.3517 46.2 23.8078 46.2 23.1897H45.8C45.8 24.0089 46.3676 24.6628 47.0756 25.0581C47.7855 25.4544 48.6854 25.6215 49.4408 25.4352L49.345 25.0468ZM40.2351 5.85261C40.3189 5.74512 40.3759 5.66173 40.4508 5.5728C40.5204 5.49012 40.5882 5.42521 40.6651 5.37898L40.4589 5.03621C40.3295 5.11406 40.2289 5.21525 40.1448 5.31512C40.066 5.40874 39.9838 5.52433 39.9196 5.60669L40.2351 5.85261ZM57.1691 34.0754C57.1649 34.073 57.1599 34.0675 57.1582 34.0592C57.1575 34.0556 57.1579 34.0534 57.158 34.0529C57.1581 34.0527 57.158 34.0528 57.1579 34.0531C57.1577 34.0534 57.1576 34.0536 57.1576 34.0535L56.8583 33.7882C56.6754 33.9944 56.7566 34.3042 56.9753 34.4253L57.1691 34.0754ZM31.4126 33.0007C31.4206 33.0153 31.4231 33.0341 31.4165 33.0556C31.4097 33.0778 31.3945 33.0978 31.374 33.11L31.5788 33.4536C31.7908 33.3273 31.8923 33.0455 31.7641 32.8097L31.4126 33.0007ZM41.8 21.8078C41.8 22.6662 41.2994 23.4103 40.547 23.9484C39.7945 24.4867 38.8132 24.8 37.9124 24.8V25.2C38.8974 25.2 39.9599 24.8602 40.7797 24.2738C41.5997 23.6873 42.2 22.8352 42.2 21.8078H41.8Z" fill="black"/>
</svg>
