<svg width="90" height="58" viewBox="0 0 90 58" fill="none" xmlns="http://www.w3.org/2000/svg">
<path fill-rule="evenodd" clip-rule="evenodd" d="M40.0505 5.76336C40.0596 5.75222 40.0685 5.74098 40.0773 5.72965C40.2253 5.53981 40.3557 5.33167 40.562 5.20759V5.20759C40.8462 5.03662 41.275 4.85408 41.8477 4.70052C42.9931 4.39337 44.4891 4.26212 46.0128 4.41503C49.2142 4.73633 51.535 6.12725 52.0476 8.43391C52.8981 12.2608 52.1411 14.083 50.938 15.2548C49.4964 16.6587 47.0352 17.5528 43.4506 18.577C42.592 18.8223 42 19.6071 42 20.5V21.8078C42 23.6936 39.7982 25 37.9124 25V25C34.0948 25 31 27.5203 31 30.6291C31 31.4391 31.2101 32.2092 31.5884 32.9052C31.6602 33.0373 31.6056 33.2048 31.4764 33.2818V33.2818L8.02586 47.2523L7.95326 47.2905C7.87344 47.3327 7.75959 47.3935 7.61787 47.4707C7.33481 47.625 6.93851 47.8461 6.47862 48.117C5.56953 48.6526 4.36685 49.4094 3.29451 50.2492C2.75819 50.6692 2.2218 51.1353 1.76152 51.6292C1.31783 52.1053 0.851235 52.7058 0.572486 53.4038C0.277932 54.1413 0.146047 55.1363 0.667548 56.119C1.15147 57.0309 2.00318 57.5523 2.80313 57.8637C3.03447 57.9538 3.28055 58 3.5288 58H45H85.5068C85.7604 58 86.0117 57.9518 86.2474 57.8579C87.4871 57.3636 88.7475 56.6052 89.2189 55.2885C89.7559 53.7887 88.9639 52.5763 88.4411 51.9912C87.8869 51.371 87.1868 50.9147 86.7239 50.6444C86.4752 50.4992 86.2542 50.3844 86.0932 50.3048C86.0147 50.2661 85.9491 50.235 85.8998 50.2122L57.0722 34.2503V34.2503C56.9541 34.185 56.9185 34.0218 57.008 33.9208C57.8288 32.9952 58.3125 31.8581 58.3125 30.6291C58.3125 27.5203 55.2177 25 51.4 25C50.702 25 50.0281 25.0843 49.3929 25.241C47.9974 25.5853 46 24.627 46 23.1897V23.1897C46 22.4821 46.4643 21.8613 47.1366 21.6407C49.6519 20.8157 52.0256 19.779 53.7287 18.1204C56.2478 15.6671 56.9908 12.2393 55.9524 7.56619C54.865 2.67285 50.1859 0.813751 46.4122 0.435025C44.4484 0.237929 42.4631 0.394167 40.8117 0.837013C39.9859 1.05845 39.1874 1.36653 38.5001 1.77993C37.8906 2.14659 37.253 2.66628 36.8278 3.39076C36.7949 3.43332 36.7562 3.48398 36.7125 3.5422C36.5764 3.72363 36.3905 3.98054 36.1797 4.29687C35.7626 4.92241 35.2252 5.81407 34.7867 6.83718C33.9883 8.70023 33.1376 11.966 35.5858 14.4142C36.3668 15.1953 37.6332 15.1953 38.4142 14.4142C39.1953 13.6332 39.1953 12.3669 38.4142 11.5858C37.8624 11.034 37.7617 10.0498 38.4633 8.41286C38.7748 7.68597 39.1749 7.01513 39.5079 6.51567C39.672 6.26949 39.8142 6.07328 39.9125 5.9422C39.9615 5.87684 39.9992 5.82818 40.0228 5.79816L40.0472 5.76748L40.0486 5.76566L40.0491 5.76508L40.0492 5.76494L40.0492 5.76488L40.0501 5.76387L40.0505 5.76336ZM47.0632 45.2505L53.5745 37.8065C53.9416 37.3868 54.6468 37.4796 55.1346 37.7497V37.7497L84.0312 53.7497C84.0848 53.7794 84.1397 53.8066 84.1958 53.8312L84.196 53.8313L84.1976 53.832L84.1985 53.8324L84.2158 53.8404C84.2282 53.8461 84.2455 53.8542 84.2669 53.8645C84.2828 53.8721 84.3011 53.881 84.3215 53.8911V53.8911C84.3773 53.9187 84.3572 54 84.2949 54H45H5.98106C5.64901 54 5.49941 53.6031 5.76083 53.3984V53.3984C6.6352 52.7136 7.66869 52.0585 8.50909 51.5633C8.92395 51.3189 9.28072 51.1199 9.53205 50.9829C9.65752 50.9146 9.7562 50.8619 9.8221 50.8271L9.89546 50.7886L9.91219 50.7799L9.91487 50.7785L9.91532 50.7783C9.95203 50.7594 9.98814 50.7393 10.0236 50.7182L33.5236 36.7182C33.6 36.6727 33.6723 36.6229 33.7403 36.5693C34.0252 36.3447 34.5616 36.3497 34.804 36.6197V36.6197L42.5727 45.2731C43.7766 46.6142 45.8796 46.6036 47.0632 45.2505Z" fill="#E9C5C5"/>
</svg>
