<svg width="91" height="59" viewBox="0 0 91 59" fill="none" xmlns="http://www.w3.org/2000/svg">
<path fill-rule="evenodd" clip-rule="evenodd" d="M40.7366 6.4123C40.7457 6.40116 40.7547 6.38992 40.7635 6.37859C40.9115 6.18875 41.0419 5.98061 41.2481 5.85653V5.85653C41.5324 5.68556 41.9612 5.50302 42.5339 5.34946C43.6793 5.04231 45.1753 4.91106 46.6989 5.06397C49.9003 5.38527 52.2212 6.77619 52.7338 9.08285C53.5842 12.9098 52.8273 14.732 51.6241 15.9037C50.1825 17.3076 47.7214 18.2018 44.1367 19.2259C43.2781 19.4713 42.6862 20.256 42.6862 21.149V22.4568C42.6862 24.3426 40.4844 25.649 38.5986 25.649V25.649C34.781 25.649 31.6862 28.1692 31.6862 31.278C31.6862 32.0881 31.8963 32.8582 32.2745 33.5541C32.3463 33.6862 32.2918 33.8538 32.1626 33.9307V33.9307L8.71202 47.9013L8.63942 47.9394C8.55959 47.9816 8.44575 48.0424 8.30403 48.1196C8.02097 48.2739 7.62466 48.495 7.16478 48.7659C6.25568 49.3016 5.05301 50.0583 3.98067 50.8981C3.44435 51.3182 2.90796 51.7842 2.44768 52.2782C2.00399 52.7543 1.53739 53.3547 1.25864 54.0527C0.964091 54.7903 0.832205 55.7852 1.35371 56.768C1.83763 57.6799 2.68934 58.2012 3.48929 58.5127C3.72063 58.6028 3.96671 58.649 4.21496 58.649H45.6862H86.1929C86.4466 58.649 86.6979 58.6007 86.9335 58.5068C88.1733 58.0126 89.4336 57.2541 89.9051 55.9374C90.442 54.4377 89.65 53.2252 89.1272 52.6401C88.573 52.0199 87.873 51.5637 87.41 51.2933C87.1614 51.1481 86.9404 51.0333 86.7793 50.9538C86.7009 50.915 86.6353 50.8839 86.586 50.8611L57.7583 34.8993V34.8993C57.6403 34.8339 57.6046 34.6708 57.6941 34.5698C58.5149 33.6441 58.9986 32.5071 58.9986 31.278C58.9986 28.1692 55.9038 25.649 52.0862 25.649C51.3881 25.649 50.7142 25.7332 50.079 25.89C48.6835 26.2342 46.6862 25.276 46.6862 23.8386V23.8386C46.6862 23.131 47.1505 22.5102 47.8228 22.2897C50.3381 21.4646 52.7118 20.4279 54.4149 18.7693C56.9339 16.316 57.677 12.8882 56.6385 8.21513C55.5511 3.32179 50.872 1.46269 47.0984 1.08397C45.1345 0.88687 43.1493 1.04311 41.4978 1.48595C40.6721 1.70739 39.8736 2.01547 39.1863 2.42887C38.5768 2.79553 37.9392 3.31522 37.5139 4.0397C37.481 4.08226 37.4423 4.13292 37.3987 4.19115C37.2626 4.37257 37.0767 4.62948 36.8658 4.94581C36.4488 5.57135 35.9113 6.46301 35.4729 7.48612C34.6744 9.34917 33.8237 12.615 36.2719 15.0632C37.053 15.8442 38.3193 15.8442 39.1004 15.0632C39.8814 14.2821 39.8814 13.0158 39.1004 12.2348C38.5486 11.683 38.4479 10.6988 39.1495 9.0618C39.461 8.33491 39.861 7.66407 40.194 7.16461C40.3581 6.91843 40.5004 6.72222 40.5987 6.59114C40.6477 6.52578 40.6854 6.47713 40.709 6.4471L40.7333 6.41642L40.7348 6.4146L40.7352 6.41402L40.7353 6.41388L40.7354 6.41382L40.7362 6.41281L40.7366 6.4123ZM47.7493 45.8995L54.2606 38.4555C54.6278 38.0358 55.3329 38.1286 55.8207 38.3987V38.3987L84.7174 54.3987C84.7709 54.4283 84.8258 54.4555 84.8819 54.4801L84.8821 54.4802L84.8837 54.4809L84.8847 54.4814L84.902 54.4893C84.9144 54.4951 84.9316 54.5031 84.953 54.5134C84.969 54.5211 84.9873 54.5299 85.0076 54.54V54.54C85.0635 54.5676 85.0433 54.649 84.981 54.649H45.6862H6.66722C6.33517 54.649 6.18557 54.252 6.44699 54.0473V54.0473C7.32136 53.3625 8.35485 52.7074 9.19525 52.2123C9.61011 51.9679 9.96687 51.7689 10.2182 51.6319C10.3437 51.5635 10.4424 51.5109 10.5083 51.476L10.5816 51.4375L10.5984 51.4288L10.601 51.4274L10.6015 51.4272C10.6382 51.4083 10.6743 51.3883 10.7098 51.3671L34.2098 37.3671C34.2862 37.3216 34.3584 37.2718 34.4264 37.2182C34.7114 36.9936 35.2478 36.9987 35.4901 37.2687V37.2687L43.2589 45.9221C44.4628 47.2631 46.5658 47.2525 47.7493 45.8995Z" fill="#D9D9D9"/>
<path d="M40.7366 6.4123L40.5816 6.28597L40.5813 6.2863L40.7366 6.4123ZM42.5339 5.34946L42.4821 5.15628L42.4821 5.15628L42.5339 5.34946ZM46.6989 5.06397L46.679 5.26297L46.679 5.26297L46.6989 5.06397ZM52.7338 9.08285L52.929 9.03947L52.929 9.03947L52.7338 9.08285ZM51.6241 15.9037L51.7637 16.047L51.7637 16.047L51.6241 15.9037ZM44.1367 19.2259L44.0818 19.0336L44.0818 19.0336L44.1367 19.2259ZM8.71202 47.9013L8.80525 48.0785L8.81438 48.0731L8.71202 47.9013ZM8.63942 47.9394L8.54633 47.7624L8.54598 47.7626L8.63942 47.9394ZM8.30403 48.1196L8.20832 47.944L8.20832 47.944L8.30403 48.1196ZM7.16478 48.7659L7.2663 48.9383L7.2663 48.9383L7.16478 48.7659ZM3.98067 50.8981L4.10398 51.0556L4.10398 51.0556L3.98067 50.8981ZM2.44768 52.2782L2.59399 52.4145L2.59399 52.4145L2.44768 52.2782ZM1.25864 54.0527L1.07291 53.9785L1.07291 53.9785L1.25864 54.0527ZM1.35371 56.768L1.17704 56.8617L1.17704 56.8617L1.35371 56.768ZM3.48929 58.5127L3.41672 58.6991L3.41673 58.6991L3.48929 58.5127ZM86.9335 58.5068L87.0076 58.6926L87.0076 58.6926L86.9335 58.5068ZM89.9051 55.9374L89.7168 55.87L89.7168 55.87L89.9051 55.9374ZM89.1272 52.6401L88.9781 52.7734L88.9781 52.7734L89.1272 52.6401ZM87.41 51.2933L87.3092 51.466L87.3092 51.466L87.41 51.2933ZM86.7793 50.9538L86.8679 50.7745L86.8679 50.7745L86.7793 50.9538ZM86.586 50.8611L86.4891 51.0361C86.4933 51.0384 86.4976 51.0405 86.5019 51.0426L86.586 50.8611ZM54.4149 18.7693L54.2753 18.626L54.2753 18.626L54.4149 18.7693ZM56.6385 8.21513L56.8338 8.17174L56.8338 8.17174L56.6385 8.21513ZM47.0984 1.08397L47.0784 1.28297L47.0984 1.08397ZM41.4978 1.48595L41.5496 1.67913L41.5496 1.67913L41.4978 1.48595ZM39.1863 2.42887L39.0832 2.25749L39.0832 2.25749L39.1863 2.42887ZM37.5139 4.0397L37.6721 4.16205C37.6773 4.15533 37.6821 4.14828 37.6864 4.14095L37.5139 4.0397ZM37.3987 4.19115L37.2387 4.07114L37.2387 4.07115L37.3987 4.19115ZM36.8658 4.94581L37.0322 5.05675L37.0322 5.05675L36.8658 4.94581ZM35.4729 7.48612L35.289 7.40734L35.289 7.40734L35.4729 7.48612ZM36.2719 15.0632L36.1305 15.2046L36.1305 15.2046L36.2719 15.0632ZM39.1004 15.0632L39.2418 15.2046L39.2418 15.2046L39.1004 15.0632ZM39.1004 12.2348L39.2418 12.0933L39.2418 12.0933L39.1004 12.2348ZM39.1495 9.0618L39.3333 9.14058L39.3333 9.14058L39.1495 9.0618ZM40.194 7.16461L40.0276 7.05367L40.0276 7.05367L40.194 7.16461ZM40.5987 6.59114L40.7587 6.71114L40.7587 6.71114L40.5987 6.59114ZM40.709 6.4471L40.5523 6.32286L40.5517 6.32353L40.709 6.4471ZM40.7333 6.41642L40.89 6.54066L40.8901 6.54056L40.7333 6.41642ZM40.7348 6.4146L40.5798 6.28808L40.5779 6.29046L40.7348 6.4146ZM40.7352 6.41402L40.8901 6.54052L40.8904 6.5402L40.7352 6.41402ZM40.7353 6.41388L40.5846 6.28229L40.5802 6.2877L40.7353 6.41388ZM40.7354 6.41382L40.8862 6.54541L40.8904 6.54021L40.7354 6.41382ZM40.7362 6.41281L40.8912 6.5392L40.8915 6.53881L40.7362 6.41281ZM47.7493 45.8995L47.5988 45.7678L47.5988 45.7678L47.7493 45.8995ZM84.7174 54.3987L84.6205 54.5736L84.6205 54.5736L84.7174 54.3987ZM84.8819 54.4801L84.9657 54.2985L84.9623 54.297L84.8819 54.4801ZM84.8821 54.4802L84.7983 54.6619L84.8022 54.6636L84.8821 54.4802ZM84.8837 54.4809L84.9643 54.2979L84.9637 54.2976L84.8837 54.4809ZM84.8847 54.4814L84.9684 54.2997L84.9653 54.2983L84.8847 54.4814ZM84.902 54.4893L84.9859 54.3078L84.9857 54.3077L84.902 54.4893ZM84.953 54.5134L84.8665 54.6937L84.8665 54.6937L84.953 54.5134ZM9.19525 52.2123L9.09372 52.04L9.09372 52.04L9.19525 52.2123ZM10.2182 51.6319L10.3139 51.8075L10.3139 51.8075L10.2182 51.6319ZM10.5083 51.476L10.4153 51.299L10.4148 51.2992L10.5083 51.476ZM10.5816 51.4375L10.4894 51.26L10.4886 51.2604L10.5816 51.4375ZM10.5984 51.4288L10.5066 51.2511L10.5061 51.2513L10.5984 51.4288ZM10.601 51.4274L10.6928 51.6051L10.6928 51.6051L10.601 51.4274ZM10.6015 51.4272L10.51 51.2494L10.5097 51.2495L10.6015 51.4272ZM10.7098 51.3671L10.8121 51.539L10.8121 51.539L10.7098 51.3671ZM34.2098 37.3671L34.3121 37.539L34.3121 37.539L34.2098 37.3671ZM43.2589 45.9221L43.11 46.0557L43.11 46.0557L43.2589 45.9221ZM34.4264 37.2182L34.5502 37.3753L34.4264 37.2182ZM54.2606 38.4555L54.4112 38.5871L54.2606 38.4555ZM47.8228 22.2897L47.7605 22.0996L47.8228 22.2897ZM50.079 25.89L50.0311 25.6958L50.079 25.89ZM40.7635 6.37859L40.9212 6.50156L40.7635 6.37859ZM57.6941 34.5698L57.5445 34.4371L57.6941 34.5698ZM32.2745 33.5541L32.0988 33.6496L32.2745 33.5541ZM40.6058 6.25563C40.5978 6.26582 40.5898 6.27594 40.5816 6.28597L40.8917 6.53864C40.9017 6.52638 40.9115 6.51402 40.9212 6.50156L40.6058 6.25563ZM42.4821 5.15628C41.8967 5.31324 41.4494 5.50206 41.145 5.68515L41.3512 6.02792C41.6153 5.86907 42.0256 5.6928 42.5857 5.54263L42.4821 5.15628ZM46.7189 4.86497C45.1733 4.70985 43.6528 4.84235 42.4821 5.15628L42.5857 5.54263C43.7058 5.24227 45.1773 5.11227 46.679 5.26297L46.7189 4.86497ZM52.929 9.03947C52.3881 6.60516 49.9516 5.1894 46.7189 4.86497L46.679 5.26297C49.8491 5.58113 52.0543 6.94723 52.5386 9.12624L52.929 9.03947ZM51.7637 16.047C52.3903 15.4367 52.902 14.6541 53.1445 13.5312C53.386 12.4133 53.3581 10.9701 52.929 9.03947L52.5386 9.12624C52.9599 11.0225 52.9788 12.4039 52.7536 13.4468C52.5294 14.4846 52.0611 15.199 51.4846 15.7604L51.7637 16.047ZM44.1917 19.4182C47.7672 18.3967 50.28 17.4919 51.7637 16.047L51.4846 15.7604C50.0851 17.1233 47.6755 18.0069 44.0818 19.0336L44.1917 19.4182ZM42.8862 21.149C42.8862 20.3453 43.4189 19.639 44.1917 19.4182L44.0818 19.0336C43.1373 19.3035 42.4862 20.1667 42.4862 21.149H42.8862ZM42.8862 22.4568V21.149H42.4862V22.4568H42.8862ZM38.5986 25.449C34.7108 25.449 31.4862 28.0223 31.4862 31.278H31.8862C31.8862 28.3161 34.8511 25.849 38.5986 25.849V25.449ZM31.4862 31.278C31.4862 32.1235 31.7056 32.9262 32.0988 33.6496L32.4502 33.4586C32.0869 32.7901 31.8862 32.0527 31.8862 31.278H31.4862ZM32.0602 33.7589L8.60966 47.7294L8.81438 48.0731L32.2649 34.1026L32.0602 33.7589ZM8.61893 47.7243L8.54633 47.7624L8.73252 48.1165L8.80511 48.0783L8.61893 47.7243ZM8.54598 47.7626C8.46546 47.8052 8.35085 47.8663 8.20832 47.944L8.39974 48.2952C8.54064 48.2185 8.65373 48.1581 8.73286 48.1163L8.54598 47.7626ZM8.20832 47.944C7.92367 48.0992 7.52539 48.3214 7.06325 48.5936L7.2663 48.9383C7.72394 48.6686 8.11827 48.4487 8.39974 48.2952L8.20832 47.944ZM7.06326 48.5936C6.15072 49.1313 4.93958 49.8931 3.85735 50.7407L4.10398 51.0556C5.16643 50.2235 6.36065 49.4718 7.2663 48.9383L7.06326 48.5936ZM3.85735 50.7407C3.31606 51.1646 2.77108 51.6377 2.30136 52.1418L2.59399 52.4145C3.04483 51.9307 3.57264 51.4717 4.10398 51.0556L3.85735 50.7407ZM2.30136 52.1418C1.84983 52.6263 1.36472 53.2478 1.07291 53.9785L1.44438 54.1269C1.71007 53.4616 2.15815 52.8822 2.59399 52.4145L2.30136 52.1418ZM1.07291 53.9785C0.763994 54.7521 0.619797 55.8116 1.17704 56.8617L1.53037 56.6742C1.04461 55.7588 1.16419 54.8285 1.44438 54.1269L1.07291 53.9785ZM1.17704 56.8617C1.69276 57.8335 2.59497 58.3791 3.41672 58.6991L3.56186 58.3263C2.78371 58.0233 1.9825 57.5262 1.53037 56.6742L1.17704 56.8617ZM3.41673 58.6991C3.67119 58.7981 3.94188 58.849 4.21496 58.849V58.449C3.99153 58.449 3.77006 58.4074 3.56186 58.3263L3.41673 58.6991ZM4.21496 58.849H45.6862V58.449H4.21496V58.849ZM45.6862 58.849H86.1929V58.449H45.6862V58.849ZM86.1929 58.849C86.4719 58.849 86.7484 58.7959 87.0076 58.6926L86.8595 58.321C86.6474 58.4055 86.4212 58.449 86.1929 58.449V58.849ZM87.0076 58.6926C88.258 58.1941 89.5912 57.4074 90.0933 56.0048L89.7168 55.87C89.2761 57.1008 88.0886 57.831 86.8595 58.321L87.0076 58.6926ZM90.0933 56.0048C90.6681 54.3996 89.8152 53.1099 89.2764 52.5069L88.9781 52.7734C89.4849 53.3406 90.216 54.4757 89.7168 55.87L90.0933 56.0048ZM89.2764 52.5069C88.7014 51.8634 87.9802 51.3946 87.5109 51.1206L87.3092 51.466C87.7658 51.7327 88.4447 52.1764 88.9781 52.7734L89.2764 52.5069ZM87.5109 51.1206C87.2574 50.9726 87.0322 50.8556 86.8679 50.7745L86.6907 51.1331C86.8486 51.2111 87.0654 51.3236 87.3092 51.466L87.5109 51.1206ZM86.8679 50.7745C86.7878 50.7349 86.7207 50.7031 86.6701 50.6796L86.5019 51.0426C86.5498 51.0648 86.6139 51.0951 86.6907 51.1331L86.8679 50.7745ZM86.6829 50.6861L57.8552 34.7243L57.6615 35.0742L86.4891 51.0361L86.6829 50.6861ZM57.8438 34.7025C58.6929 33.7448 59.1986 32.5618 59.1986 31.278H58.7986C58.7986 32.4523 58.3369 33.5434 57.5445 34.4371L57.8438 34.7025ZM59.1986 31.278C59.1986 28.0223 55.9739 25.449 52.0862 25.449V25.849C55.8337 25.849 58.7986 28.3161 58.7986 31.278H59.1986ZM52.0862 25.449C51.3721 25.449 50.6821 25.5352 50.0311 25.6958L50.1269 26.0841C50.7464 25.9313 51.4042 25.849 52.0862 25.849V25.449ZM54.2753 18.626C52.6063 20.2515 50.2692 21.2767 47.7605 22.0996L47.8851 22.4797C50.4069 21.6525 52.8173 20.6044 54.5544 18.9126L54.2753 18.626ZM56.4433 8.25852C57.4725 12.8897 56.7284 16.2371 54.2753 18.626L54.5544 18.9126C57.1395 16.395 57.8815 12.8866 56.8338 8.17174L56.4433 8.25852ZM47.0784 1.28297C50.825 1.65898 55.3848 3.49549 56.4433 8.25852L56.8338 8.17174C55.7174 3.14808 50.919 1.2664 47.1184 0.884965L47.0784 1.28297ZM41.5496 1.67913C43.1758 1.24307 45.1366 1.08808 47.0784 1.28297L47.1184 0.884965C45.1325 0.685661 43.1228 0.843147 41.446 1.29278L41.5496 1.67913ZM39.2894 2.60026C39.9565 2.19897 40.7365 1.89717 41.5496 1.67913L41.446 1.29278C40.6076 1.51761 39.7906 1.83197 39.0832 2.25749L39.2894 2.60026ZM37.6864 4.14095C38.089 3.45515 38.6967 2.95677 39.2894 2.60026L39.0832 2.25749C38.4568 2.6343 37.7894 3.17529 37.3415 3.93846L37.6864 4.14095ZM37.5587 4.31115C37.6017 4.25374 37.6398 4.20386 37.6721 4.16205L37.3557 3.91736C37.3222 3.96067 37.2829 4.0121 37.2387 4.07114L37.5587 4.31115ZM37.0322 5.05675C37.2408 4.74393 37.4245 4.49005 37.5587 4.31114L37.2387 4.07115C37.1007 4.25508 36.9126 4.51504 36.6994 4.83487L37.0322 5.05675ZM35.6567 7.56491C36.0888 6.5566 36.6194 5.67598 37.0322 5.05675L36.6994 4.83487C36.2782 5.46672 35.7339 6.36942 35.289 7.40734L35.6567 7.56491ZM36.4134 14.9218C34.0607 12.5691 34.8623 9.41843 35.6567 7.56491L35.289 7.40734C34.4865 9.27991 33.5867 12.6608 36.1305 15.2046L36.4134 14.9218ZM38.959 14.9218C38.256 15.6247 37.1163 15.6247 36.4134 14.9218L36.1305 15.2046C36.9897 16.0638 38.3826 16.0638 39.2418 15.2046L38.959 14.9218ZM38.959 12.3762C39.6619 13.0791 39.6619 14.2188 38.959 14.9218L39.2418 15.2046C40.101 14.3455 40.101 12.9525 39.2418 12.0933L38.959 12.3762ZM38.9656 8.98302C38.2573 10.6359 38.3144 11.7316 38.959 12.3762L39.2418 12.0933C38.7828 11.6344 38.6385 10.7616 39.3333 9.14058L38.9656 8.98302ZM40.0276 7.05367C39.6904 7.55942 39.2835 8.24131 38.9656 8.98302L39.3333 9.14058C39.6385 8.42851 40.0316 7.76871 40.3604 7.27555L40.0276 7.05367ZM40.4387 6.47114C40.3385 6.60474 40.1941 6.80398 40.0276 7.05367L40.3604 7.27555C40.5222 7.03288 40.6622 6.8397 40.7587 6.71114L40.4387 6.47114ZM40.5517 6.32353C40.5273 6.35466 40.4886 6.4045 40.4387 6.47114L40.7587 6.71114C40.8067 6.64705 40.8435 6.59959 40.8663 6.57066L40.5517 6.32353ZM40.5766 6.29218L40.5523 6.32286L40.8657 6.57134L40.89 6.54066L40.5766 6.29218ZM40.5779 6.29046L40.5765 6.29229L40.8901 6.54056L40.8916 6.53874L40.5779 6.29046ZM40.5803 6.28752L40.5798 6.2881L40.8897 6.5411L40.8901 6.54052L40.5803 6.28752ZM40.5802 6.2877L40.5801 6.28785L40.8904 6.5402L40.8905 6.54005L40.5802 6.2877ZM40.5847 6.28232L40.5847 6.28237L40.886 6.54538L40.8861 6.54533L40.5847 6.28232ZM40.5812 6.28642L40.5804 6.28744L40.8904 6.54021L40.8912 6.5392L40.5812 6.28642ZM40.5813 6.2863L40.5809 6.28681L40.8915 6.53881L40.8919 6.53831L40.5813 6.2863ZM54.1101 38.3238L47.5988 45.7678L47.8998 46.0312L54.4112 38.5871L54.1101 38.3238ZM84.8142 54.2237L55.9176 38.2237L55.7239 38.5736L84.6205 54.5736L84.8142 54.2237ZM84.9623 54.297C84.9119 54.2749 84.8624 54.2504 84.8142 54.2237L84.6205 54.5736C84.6794 54.6063 84.7398 54.6362 84.8015 54.6633L84.9623 54.297ZM84.9659 54.2986L84.9657 54.2985L84.7981 54.6617L84.7983 54.6618L84.9659 54.2986ZM84.9637 54.2976L84.962 54.2969L84.8022 54.6636L84.8038 54.6643L84.9637 54.2976ZM84.9653 54.2983L84.9643 54.2979L84.8031 54.664L84.8041 54.6644L84.9653 54.2983ZM84.9857 54.3077L84.9684 54.2997L84.801 54.663L84.8183 54.671L84.9857 54.3077ZM85.0396 54.3331C85.0172 54.3224 84.9992 54.3139 84.9859 54.3078L84.818 54.6709C84.8296 54.6762 84.846 54.6839 84.8665 54.6937L85.0396 54.3331ZM85.0962 54.3607C85.0751 54.3503 85.0562 54.3411 85.0395 54.3331L84.8665 54.6937C84.8818 54.7011 84.8994 54.7096 84.919 54.7193L85.0962 54.3607ZM45.6862 54.849H84.981V54.449H45.6862V54.849ZM6.66722 54.849H45.6862V54.449H6.66722V54.849ZM9.09372 52.04C8.2499 52.5371 7.20795 53.1973 6.32367 53.8899L6.57031 54.2048C7.43477 53.5277 8.4598 52.8777 9.29677 52.3846L9.09372 52.04ZM10.1225 51.4563C9.86958 51.5941 9.51083 51.7942 9.09372 52.04L9.29677 52.3846C9.70938 52.1415 10.0642 51.9436 10.3139 51.8075L10.1225 51.4563ZM10.4148 51.2992C10.3482 51.3344 10.2488 51.3874 10.1225 51.4563L10.3139 51.8075C10.4386 51.7396 10.5365 51.6873 10.6017 51.6529L10.4148 51.2992ZM10.4886 51.2604L10.4153 51.299L10.6012 51.6531L10.6746 51.6146L10.4886 51.2604ZM10.5061 51.2513L10.4894 51.26L10.6738 51.615L10.6906 51.6063L10.5061 51.2513ZM10.5092 51.2497L10.5066 51.2511L10.6901 51.6065L10.6928 51.6051L10.5092 51.2497ZM10.5097 51.2495L10.5092 51.2497L10.6928 51.6051L10.6933 51.6049L10.5097 51.2495ZM10.6074 51.1953C10.5755 51.2143 10.543 51.2324 10.51 51.2494L10.693 51.605C10.7334 51.5842 10.7731 51.5622 10.8121 51.539L10.6074 51.1953ZM34.1074 37.1953L10.6074 51.1953L10.8121 51.539L34.3121 37.539L34.1074 37.1953ZM34.3026 37.0612C34.2414 37.1094 34.1763 37.1543 34.1074 37.1953L34.3121 37.539C34.396 37.489 34.4754 37.4343 34.5502 37.3753L34.3026 37.0612ZM43.4077 45.7885L35.639 37.135L35.3413 37.4023L43.11 46.0557L43.4077 45.7885ZM47.5988 45.7678C46.4946 47.0301 44.5319 47.0407 43.4077 45.7885L43.11 46.0557C44.3938 47.4856 46.6369 47.475 47.8998 46.0312L47.5988 45.7678ZM34.5502 37.3753C34.6475 37.2986 34.8032 37.2522 34.9673 37.2578C35.1323 37.2636 35.2676 37.3202 35.3413 37.4023L35.639 37.135C35.4703 36.9472 35.2162 36.8662 34.9812 36.8581C34.7453 36.8499 34.4903 36.9132 34.3026 37.0612L34.5502 37.3753ZM6.66722 54.449C6.58863 54.449 6.5406 54.4054 6.5221 54.3555C6.50423 54.3072 6.51218 54.2503 6.57031 54.2048L6.32367 53.8899C5.89817 54.2231 6.16353 54.849 6.66722 54.849V54.449ZM84.919 54.7193C84.855 54.6877 84.8301 54.6156 84.8444 54.5572C84.8585 54.4997 84.912 54.449 84.981 54.449V54.849C85.2418 54.849 85.3535 54.4878 85.0962 54.3607L84.919 54.7193ZM54.4112 38.5871C54.5442 38.435 54.7472 38.3645 54.9922 38.3684C55.2379 38.3723 55.5043 38.4521 55.7239 38.5736L55.9176 38.2237C55.6493 38.0752 55.3192 37.9735 54.9986 37.9684C54.6773 37.9633 54.3442 38.0562 54.1101 38.3238L54.4112 38.5871ZM46.8862 23.8386C46.8862 23.2203 47.2922 22.6742 47.8851 22.4797L47.7605 22.0996C47.0087 22.3462 46.4862 23.0417 46.4862 23.8386H46.8862ZM50.0311 25.6958C49.391 25.8537 48.5945 25.7138 47.9568 25.3578C47.3172 25.0007 46.8862 24.4567 46.8862 23.8386H46.4862C46.4862 24.6579 47.0538 25.3117 47.7618 25.707C48.4716 26.1034 49.3716 26.2705 50.1269 26.0841L50.0311 25.6958ZM40.9212 6.50156C41.005 6.39407 41.062 6.31067 41.1369 6.22174C41.2066 6.13906 41.2744 6.07415 41.3512 6.02792L41.145 5.68515C41.0156 5.763 40.9151 5.86419 40.831 5.96406C40.7521 6.05768 40.67 6.17327 40.6058 6.25563L40.9212 6.50156ZM57.8552 34.7243C57.851 34.722 57.8461 34.7164 57.8444 34.7082C57.8437 34.7045 57.844 34.7023 57.8442 34.7018C57.8442 34.7016 57.8442 34.7017 57.844 34.702C57.8439 34.7024 57.8437 34.7026 57.8438 34.7025L57.5445 34.4371C57.3616 34.6434 57.4427 34.9532 57.6615 35.0743L57.8552 34.7243ZM32.0988 33.6496C32.1068 33.6642 32.1093 33.6831 32.1027 33.7046C32.0959 33.7267 32.0807 33.7467 32.0602 33.7589L32.2649 34.1026C32.477 33.9762 32.5784 33.6944 32.4502 33.4586L32.0988 33.6496ZM42.4862 22.4568C42.4862 23.3151 41.9855 24.0592 41.2332 24.5974C40.4807 25.1356 39.4994 25.449 38.5986 25.449V25.849C39.5835 25.849 40.6461 25.5091 41.4659 24.9227C42.2859 24.3362 42.8862 23.4842 42.8862 22.4568H42.4862Z" fill="black"/>
</svg>
